<?xml version="1.0" standalone="no"?>
<!DOCTYPE svg PUBLIC "-//W3C//DTD SVG 20010904//EN"
 "http://www.w3.org/TR/2001/REC-SVG-20010904/DTD/svg10.dtd">
<svg version="1.0" xmlns="http://www.w3.org/2000/svg"
 width="1379.000000pt" height="1379.000000pt" viewBox="0 0 1379.000000 1379.000000"
 preserveAspectRatio="xMidYMid meet">
<metadata>
Created by potrace 1.14, written by Peter Selinger 2001-2017
</metadata>
<g transform="translate(0.000000,1379.000000) scale(0.100000,-0.100000)"
fill="#000000" stroke="none">
<path d="M11630 13768 c0 -7 4 -29 10 -48 5 -19 12 -55 15 -80 3 -25 8 -52 10
-60 2 -8 6 -31 9 -50 3 -19 14 -91 25 -160 12 -69 23 -143 26 -165 4 -22 8
-51 10 -64 8 -48 16 -107 19 -141 2 -19 6 -49 9 -65 3 -17 9 -57 12 -90 3 -33
8 -73 10 -90 5 -34 12 -93 20 -180 3 -33 8 -78 10 -100 4 -36 12 -131 20 -240
21 -267 28 -921 12 -1160 -11 -171 -15 -234 -21 -280 -3 -22 -8 -71 -11 -110
-4 -38 -8 -77 -10 -85 -2 -8 -7 -40 -10 -70 -3 -30 -8 -66 -10 -80 -3 -14 -7
-41 -10 -60 -14 -89 -27 -162 -45 -245 -10 -49 -21 -101 -24 -115 -43 -235
-214 -768 -321 -1005 -7 -16 -32 -73 -55 -125 -120 -274 -297 -601 -530 -980
-108 -175 -362 -576 -378 -595 -4 -5 -32 -50 -62 -98 -30 -49 -78 -125 -107
-170 -107 -171 -322 -533 -345 -582 -5 -11 -14 -29 -21 -40 -263 -437 -530
-960 -707 -1385 -95 -226 -258 -679 -275 -760 -2 -8 -10 -35 -18 -60 -15 -44
-46 -150 -53 -180 -1 -8 -19 -79 -39 -158 -36 -147 -89 -403 -100 -482 -3 -25
-10 -67 -15 -95 -5 -27 -12 -76 -15 -108 -4 -32 -8 -67 -10 -78 -2 -11 -7 -57
-11 -102 -3 -45 -8 -91 -10 -102 -7 -37 -18 -319 -17 -465 0 -130 8 -316 17
-410 13 -125 19 -177 22 -195 2 -11 6 -40 9 -65 3 -25 8 -56 11 -70 2 -14 6
-35 8 -46 3 -12 7 -39 10 -60 9 -52 53 -246 70 -309 40 -142 57 -198 86 -279
17 -49 36 -100 42 -115 6 -14 12 -30 14 -36 7 -29 99 -227 149 -321 64 -121
175 -294 189 -294 24 0 559 279 801 418 22 12 48 25 58 29 9 3 17 9 17 14 0 5
4 9 9 9 11 0 284 165 401 241 41 27 81 52 89 56 7 3 52 32 100 65 47 32 93 63
101 68 74 49 388 277 400 290 3 3 21 17 40 30 74 52 328 262 489 405 130 115
457 441 561 560 29 33 67 76 84 95 58 65 162 194 249 310 48 63 91 120 97 127
5 6 61 89 124 185 184 280 344 574 455 838 29 69 57 134 62 145 10 22 68 183
104 290 40 117 120 414 140 520 26 133 47 250 55 305 9 65 12 90 25 205 4 33
9 74 11 90 23 192 23 843 0 985 -3 14 -7 57 -10 95 -4 39 -8 80 -10 90 -2 11
-7 45 -10 75 -4 30 -8 66 -11 80 -4 26 -12 78 -21 140 -8 56 -64 330 -79 390
-8 30 -16 66 -19 80 -2 14 -21 84 -41 155 -19 72 -38 140 -41 152 -17 83 -192
581 -255 728 -5 11 -31 72 -57 135 -129 304 -367 768 -510 995 -60 95 -73 115
-135 210 -35 55 -83 125 -105 156 -23 31 -40 58 -38 60 2 2 6 24 9 49 6 48 26
189 32 230 2 14 7 57 10 95 4 39 9 84 11 100 22 171 22 656 -1 900 -13 143
-16 173 -20 196 -2 13 -6 47 -10 74 -6 48 -29 193 -40 245 -3 14 -8 39 -10 55
-3 17 -8 37 -10 45 -2 8 -7 31 -10 50 -14 84 -118 462 -135 492 -6 10 -10 22
-10 28 0 12 -84 249 -106 298 -16 36 -32 75 -60 142 -64 155 -223 453 -330
618 -54 82 -64 93 -64 70z"/>
<path d="M7428 12335 c-1 -1 -57 -6 -123 -10 -66 -3 -136 -8 -155 -10 -19 -2
-66 -6 -105 -9 -38 -4 -81 -8 -95 -11 -14 -2 -52 -7 -85 -10 -65 -7 -97 -11
-190 -26 -60 -9 -70 -11 -180 -30 -33 -6 -73 -13 -90 -16 -16 -2 -58 -11 -93
-19 -34 -7 -74 -16 -90 -19 -15 -2 -81 -18 -147 -35 -66 -17 -131 -34 -144
-36 -14 -3 -28 -7 -33 -10 -5 -3 -19 -7 -33 -10 -31 -5 -186 -53 -325 -101
-375 -127 -746 -294 -1065 -481 -60 -35 -124 -73 -142 -83 -36 -21 -146 -91
-153 -99 -3 -3 -32 -23 -65 -44 -150 -98 -448 -334 -593 -470 -354 -331 -608
-633 -875 -1039 -26 -39 -50 -79 -54 -87 -4 -8 -18 -31 -31 -50 -13 -19 -28
-44 -33 -55 -5 -11 -19 -36 -30 -55 -68 -111 -289 -553 -289 -576 0 -3 -9 -24
-19 -48 -11 -23 -29 -67 -41 -97 -11 -30 -27 -67 -34 -84 -13 -28 -76 -208
-124 -350 -60 -179 -172 -610 -198 -760 -2 -16 -7 -37 -9 -45 -2 -8 -6 -31 -9
-50 -3 -19 -8 -46 -11 -60 -6 -27 -12 -63 -20 -124 -3 -21 -7 -41 -9 -45 -2
-3 -7 -31 -10 -62 -4 -31 -8 -66 -10 -76 -3 -11 -7 -44 -11 -74 -3 -30 -8 -65
-10 -79 -2 -14 -6 -51 -9 -84 -3 -32 -8 -77 -11 -100 -12 -104 -16 -143 -30
-356 -23 -341 -23 -942 0 -1295 3 -33 7 -96 9 -140 3 -44 8 -116 12 -160 l6
-80 -64 -42 c-306 -200 -697 -603 -929 -960 -112 -171 -136 -212 -220 -378
-131 -260 -214 -479 -284 -751 -36 -137 -37 -144 -54 -234 -53 -282 -66 -435
-66 -785 0 -254 4 -352 20 -495 6 -54 44 -312 50 -340 3 -14 8 -38 11 -55 13
-77 47 -229 69 -320 14 -55 28 -109 30 -120 4 -17 48 -166 59 -200 2 -5 7 -25
11 -42 8 -37 27 -46 19 -11 -7 32 -7 336 0 438 9 142 17 244 21 270 2 14 6 54
10 90 3 36 8 72 10 80 2 8 7 40 10 70 3 30 8 62 10 70 2 8 7 35 10 60 18 131
113 540 161 691 142 453 287 789 500 1161 145 254 388 599 558 793 33 38 72
83 86 100 42 50 400 406 474 470 90 79 278 230 347 280 30 22 56 42 59 45 3 4
48 35 100 70 52 36 97 67 100 70 3 4 70 47 150 97 504 314 993 543 1635 764
516 178 895 310 1040 364 39 14 88 32 110 39 46 15 330 122 360 135 11 5 36
15 55 21 19 7 49 19 65 26 17 7 83 34 147 58 65 25 125 50 135 55 10 5 86 37
168 72 263 109 542 238 835 387 157 79 290 148 296 153 6 5 42 25 80 46 38 20
109 60 158 89 49 30 91 54 93 54 3 0 28 15 56 33 29 19 108 69 177 112 210
132 421 281 625 439 92 72 313 255 351 291 12 11 46 42 75 69 276 249 540 540
765 841 155 208 136 181 195 270 93 142 118 183 188 305 266 462 468 974 601
1518 l22 92 -38 48 c-191 235 -520 477 -889 653 -401 191 -991 367 -1422 424
-13 2 -42 6 -65 10 -24 4 -54 8 -68 10 -14 2 -43 6 -65 9 -22 3 -62 8 -90 11
-27 3 -66 7 -85 10 -19 2 -73 7 -120 10 -47 4 -112 9 -145 12 -69 5 -741 13
-747 8z m-950 -2360 c348 -39 687 -220 920 -491 62 -73 60 -70 109 -142 121
-181 208 -420 230 -636 54 -543 -176 -1036 -630 -1351 -61 -42 -277 -153 -309
-159 -7 -1 -44 -12 -83 -24 -280 -85 -599 -76 -885 24 -416 145 -753 492 -888
915 -17 52 -33 114 -37 139 -4 24 -8 47 -10 50 -9 15 -19 149 -20 250 0 118 7
194 24 271 6 24 12 58 15 76 16 88 123 338 178 417 130 184 221 282 360 387
158 119 400 227 573 255 17 3 36 7 44 10 8 2 46 7 85 11 39 3 72 7 74 8 5 4
193 -3 250 -10z"/>
<path d="M4467 3894 c-1 -1 -64 -5 -140 -8 -76 -4 -153 -9 -170 -11 -18 -2
-59 -6 -92 -10 -102 -10 -149 -16 -175 -20 -14 -3 -41 -7 -60 -10 -92 -14
-213 -38 -285 -57 -44 -11 -89 -22 -100 -24 -42 -8 -254 -73 -345 -107 -322
-118 -645 -298 -818 -455 l-43 -39 47 -69 c26 -38 73 -103 103 -146 31 -42 63
-86 71 -98 8 -12 22 -30 30 -40 8 -10 24 -31 35 -46 24 -33 166 -213 194 -246
10 -13 36 -43 56 -68 88 -106 154 -182 285 -324 191 -209 542 -539 733 -691
21 -16 44 -35 50 -40 14 -12 181 -141 218 -168 575 -418 1188 -719 1764 -867
83 -21 164 -41 180 -43 17 -3 55 -10 85 -16 101 -19 115 -21 188 -28 77 -6 80
-4 62 42 -5 14 -12 36 -14 49 -4 22 -97 360 -117 421 -14 48 -80 276 -84 294
-2 9 -18 63 -35 121 -50 168 -120 404 -125 420 -2 8 -38 130 -80 270 -92 309
-104 348 -111 379 -3 14 -7 28 -10 32 -2 4 -23 70 -45 146 -22 76 -53 181 -69
233 -15 52 -40 136 -55 185 -14 50 -42 142 -62 205 -19 63 -39 129 -43 145 -5
17 -18 62 -30 100 -12 39 -35 114 -51 168 -70 232 -91 304 -101 337 -5 19 -13
38 -16 42 -4 4 -41 10 -82 13 -41 4 -88 9 -105 10 -108 11 -629 27 -638 19z"/>
</g>
</svg>
